<svg width="15" height="15" viewBox="0 0 15 15" fill="none" xmlns="http://www.w3.org/2000/svg">
<path d="M7.7183 9.7707C7.12012 9.7707 6.54644 9.53308 6.12347 9.11011C5.70049 8.68713 5.46286 8.11345 5.46286 7.51527C5.46301 6.91719 5.7007 6.34365 6.12366 5.9208C6.54662 5.49794 7.12022 5.2604 7.7183 5.2604C8.31638 5.2604 8.88998 5.49794 9.31294 5.9208C9.7359 6.34365 9.97358 6.91719 9.97373 7.51527C9.97373 8.11345 9.73611 8.68713 9.31313 9.11011C8.89016 9.53308 8.31648 9.7707 7.7183 9.7707ZM7.7183 4.13184C6.82115 4.13198 5.96079 4.48844 5.32641 5.12282C4.69203 5.7572 4.33557 6.61756 4.33542 7.51471C4.33557 8.41186 4.69203 9.27222 5.32641 9.9066C5.96079 10.541 6.82115 10.8974 7.7183 10.8976C8.61545 10.8974 9.47581 10.541 10.1102 9.9066C10.7446 9.27222 11.101 8.41186 11.1012 7.51471C11.101 6.61756 10.7446 5.7572 10.1102 5.12282C9.47581 4.48844 8.61545 4.13198 7.7183 4.13184Z" fill="#0D0D0D"/>
<path d="M13.3562 12.0261C13.3562 12.3251 13.2374 12.6119 13.026 12.8233C12.8146 13.0348 12.5278 13.1536 12.2288 13.1536H3.20759C2.90852 13.1536 2.62169 13.0348 2.41017 12.8234C2.19864 12.612 2.07974 12.3252 2.07959 12.0261V3.00495C2.07959 2.70579 2.19843 2.41887 2.40997 2.20733C2.62151 1.99579 2.90842 1.87695 3.20759 1.87695H12.2288C12.3769 1.87695 12.5235 1.90613 12.6604 1.96283C12.7972 2.01952 12.9215 2.10262 13.0262 2.20737C13.1309 2.31212 13.2139 2.43647 13.2705 2.57332C13.3272 2.71017 13.3563 2.85685 13.3562 3.00495V12.0261ZM12.2288 0.751193H3.20759C2.60941 0.751193 2.03573 0.988813 1.61275 1.41179C1.18978 1.83477 0.952148 2.40844 0.952148 3.00662V12.0278C0.952297 12.6259 1.18999 13.1994 1.61295 13.6223C2.03591 14.0451 2.60951 14.2827 3.20759 14.2827H12.2288C12.8269 14.2827 13.4004 14.0451 13.8234 13.6223C14.2464 13.1994 14.4841 12.6259 14.4842 12.0278V3.00495C14.4842 2.40677 14.2466 1.83309 13.8236 1.41012C13.4006 0.98714 12.8269 0.749512 12.2288 0.749512" fill="#0D0D0D"/>
</svg>
