<svg width="109" height="20" viewBox="0 0 109 20" fill="none" xmlns="http://www.w3.org/2000/svg">
<path d="M9.65429 0.345703L11.8218 7.01665H18.8361L13.1614 11.1395L15.3289 17.8105L9.65429 13.6876L3.97964 17.8105L6.14716 11.1395L0.472514 7.01665H7.48676L9.65429 0.345703Z" fill="#242424"/>
<path d="M32.0771 0.345703L34.2447 7.01665H41.2589L35.5843 11.1395L37.7518 17.8105L32.0771 13.6876L26.4025 17.8105L28.57 11.1395L22.8954 7.01665H29.9096L32.0771 0.345703Z" fill="#242424"/>
<path d="M54.5 0.345703L56.6675 7.01665H63.6818L58.0071 11.1395L60.1746 17.8105L54.5 13.6876L48.8253 17.8105L50.9929 11.1395L45.3182 7.01665H52.3325L54.5 0.345703Z" fill="#242424"/>
<path d="M76.9228 0.345703L79.0904 7.01665H86.1046L80.43 11.1395L82.5975 17.8105L76.9228 13.6876L71.2482 17.8105L73.4157 11.1395L67.7411 7.01665H74.7553L76.9228 0.345703Z" fill="#242424"/>
<path d="M99.3457 0.345703L101.513 7.01665H108.527L102.853 11.1395L105.02 17.8105L99.3457 13.6876L93.671 17.8105L95.8386 11.1395L90.1639 7.01665H97.1782L99.3457 0.345703Z" fill="#242424"/>
</svg>
