<svg width="17" height="13" viewBox="0 0 17 13" fill="none" xmlns="http://www.w3.org/2000/svg">
<path d="M16.2537 6.46733C16.2537 6.42865 16.2537 6.38574 16.2537 6.3354C16.2537 6.19499 16.2484 6.0371 16.2447 5.86808C16.2304 5.3838 16.2061 4.90216 16.1684 4.44755C16.1342 3.92852 16.0564 3.41329 15.9358 2.90729C15.8258 2.49815 15.6103 2.12502 15.3111 1.8251C15.0118 1.52518 14.6391 1.30896 14.2302 1.198C13.3041 1.02486 12.3642 0.936189 11.4221 0.933075C10.7788 0.908702 10.0895 0.893337 9.40122 0.884329C9.16014 0.88062 8.93548 0.879031 8.73414 0.877441H8.22496C8.02361 0.877441 7.80108 0.88062 7.55788 0.884329C6.86908 0.893337 6.18027 0.908702 5.53704 0.933075C4.59496 0.937652 3.65516 1.02631 2.72885 1.198C2.32012 1.30873 1.94767 1.52492 1.6488 1.82491C1.34993 2.1249 1.13513 2.49815 1.02592 2.90729C0.904661 3.41315 0.826844 3.92845 0.793313 4.44755C0.755694 4.90216 0.731321 5.3838 0.717015 5.86808C0.711717 6.0371 0.710127 6.19446 0.708008 6.3354C0.708008 6.38839 0.708008 6.42865 0.708008 6.46733V6.5643C0.708008 6.60297 0.708008 6.64589 0.708008 6.69623C0.708008 6.83664 0.713306 6.99506 0.717015 7.16355C0.731321 7.64783 0.755694 8.12947 0.793313 8.58407C0.827971 9.10324 0.905774 9.61861 1.02592 10.1249C1.13554 10.5342 1.3508 10.9075 1.65015 11.2074C1.94949 11.5073 2.3224 11.7232 2.7315 11.8336C3.65754 12.0072 4.59751 12.0959 5.53969 12.0986C6.18398 12.1229 6.87225 12.1383 7.56053 12.1473C7.80161 12.151 8.02626 12.1526 8.22761 12.1547H8.73679C8.93813 12.1547 9.16067 12.151 9.40387 12.1473C10.0927 12.1383 10.7815 12.1229 11.4247 12.0986C12.3668 12.094 13.3066 12.0053 14.2329 11.8336C14.6422 11.7236 15.0153 11.5077 15.3147 11.2078C15.614 10.9078 15.8292 10.5343 15.9385 10.1249C16.0601 9.61872 16.1379 9.10304 16.1711 8.58354C16.2087 8.12894 16.2331 7.6473 16.2474 7.16302C16.2527 6.99506 16.2543 6.83664 16.2564 6.6957C16.2564 6.64271 16.2564 6.60245 16.2564 6.56377L16.2537 6.46733ZM15.0049 6.55741C15.0049 6.59344 15.0049 6.63371 15.0049 6.68033C15.0049 6.81597 14.9996 6.96539 14.9959 7.12646C14.9842 7.58743 14.9598 8.04946 14.9233 8.47758C14.8945 8.92363 14.8297 9.36661 14.7294 9.80219C14.6762 9.9994 14.5723 10.1792 14.4281 10.3238C14.2838 10.4684 14.1041 10.5726 13.907 10.6261C13.071 10.7679 12.225 10.8421 11.377 10.8481C10.7454 10.8725 10.0651 10.8879 9.38691 10.8969C9.14954 10.9 8.92859 10.9022 8.73096 10.9022H8.23184L7.57589 10.8969C6.89769 10.8879 6.21895 10.8725 5.58579 10.8481C4.7379 10.8411 3.89191 10.7669 3.05576 10.6261C2.85876 10.5725 2.67923 10.4682 2.53504 10.3237C2.39086 10.1791 2.28706 9.99934 2.23397 9.80219C2.13307 9.36671 2.06804 8.92369 2.03951 8.47758C2.00349 8.04946 1.98017 7.58796 1.96693 7.12646C1.96163 6.96751 1.95951 6.81385 1.95792 6.68033C1.95792 6.63371 1.95792 6.59238 1.95792 6.55741V6.47369C1.95792 6.43766 1.95792 6.39739 1.95792 6.35077C1.95792 6.21513 1.96322 6.06624 1.96693 5.90517C1.97858 5.44314 2.00296 4.98217 2.03951 4.55352C2.06794 4.1074 2.13298 3.66437 2.23397 3.22891C2.28694 3.03159 2.39084 2.85166 2.53526 2.70715C2.67968 2.56264 2.85954 2.45862 3.05682 2.40552C3.89288 2.26407 4.73893 2.18983 5.58684 2.18352C6.21842 2.15914 6.89875 2.14378 7.57695 2.1353C7.81432 2.13159 8.03527 2.13 8.2329 2.13H8.72884L9.38479 2.1353C10.063 2.14325 10.7417 2.15914 11.3749 2.18352C12.2228 2.19053 13.0688 2.26477 13.9049 2.40552C14.1019 2.45938 14.2815 2.56378 14.4257 2.70839C14.57 2.85301 14.6739 3.0328 14.7272 3.22996C14.8276 3.66553 14.8925 4.10852 14.9212 4.55458C14.9572 4.98323 14.9805 5.4442 14.9938 5.90622C14.9996 6.06518 15.0012 6.21778 15.0028 6.35183C15.0028 6.39845 15.0028 6.44084 15.0028 6.47475L15.0049 6.55741ZM6.9369 8.84052L10.9637 6.49806L6.9369 4.19058V8.84052Z" fill="#0D0D0D"/>
</svg>
