<svg width="13" height="17" viewBox="0 0 13 17" fill="none" xmlns="http://www.w3.org/2000/svg">
<path d="M10.7727 2.33281C9.70199 1.3049 8.22018 0.73877 6.60032 0.73877C4.12591 0.73877 2.60403 1.75306 1.76306 2.6039C0.726621 3.65247 0.132324 5.04477 0.132324 6.42386C0.132324 8.1554 0.856594 9.48442 2.06946 9.97885C2.15089 10.0122 2.23282 10.029 2.31315 10.029C2.56903 10.029 2.77177 9.86158 2.84201 9.59303C2.88296 9.43897 2.97781 9.05886 3.01907 8.89386C3.10736 8.56801 3.03603 8.41127 2.84347 8.18435C2.49268 7.76928 2.32932 7.27846 2.32932 6.63969C2.32932 4.74232 3.74213 2.72582 6.36064 2.72582C8.43832 2.72582 9.72894 3.9067 9.72894 5.80756C9.72894 7.00709 9.47057 8.11797 9.00126 8.93569C8.67515 9.50389 8.10169 10.1812 7.22135 10.1812C6.84067 10.1812 6.49869 10.0248 6.28292 9.75217C6.07909 9.49444 6.01188 9.16152 6.09388 8.81453C6.18649 8.42249 6.31279 8.01355 6.43501 7.61822C6.65792 6.89617 6.86865 6.21419 6.86865 5.67009C6.86865 4.73943 6.2965 4.11409 5.44505 4.11409C4.36298 4.11409 3.51524 5.21311 3.51524 6.61614C3.51524 7.30423 3.6981 7.81889 3.78089 8.0165C3.64457 8.59405 2.83441 12.0278 2.68074 12.6753C2.59188 13.0533 2.05661 16.0387 2.94257 16.2767C3.938 16.5442 4.82779 13.6366 4.91836 13.308C4.99176 13.0408 5.24857 12.0304 5.40595 11.4093C5.8865 11.8722 6.66023 12.1851 7.41309 12.1851C8.83237 12.1851 10.1088 11.5465 11.0072 10.3869C11.8785 9.26215 12.3584 7.69451 12.3584 5.97296C12.3583 4.62711 11.7803 3.30028 10.7727 2.33281Z" fill="#0D0D0D"/>
</svg>
