<svg id="Layer_1" data-name="Layer 1" xmlns="http://www.w3.org/2000/svg" viewBox="0 0 1002.39 348.39"><defs><style>.cls-1{fill:#0d0d0d;}</style></defs><path class="cls-1" d="M333.35,135.54,328.14,128C312.26,105.06,279.66,104.4,276,104.4c-45.47,0-92.5,35.35-92.5,94.51s47,94.51,92.5,94.51c15.11,0,41.28-7.31,52.11-23.57l5.24-7.86v27.82h49.58V108.41H333.35Zm-57.42,16.93c1.15-.21,2.3-.41,3.47-.53l.2,0c1.56-.15,3.15-.24,4.76-.24a47.24,47.24,0,0,1,0,94.48c-1.61,0-3.19-.09-4.76-.24l-.2,0c-1.17-.12-2.32-.32-3.46-.53a52.55,52.55,0,0,1-7.36-2c-.65-.23-1.31-.46-1.94-.71l-.91-.37a47.23,47.23,0,0,1,0-86.81c.3-.12.6-.23.9-.36.64-.26,1.3-.48,1.95-.71A53.16,53.16,0,0,1,275.93,152.47Z"/><path class="cls-1" d="M629.26,104.4c-15.51,0-37.41,5.53-53.66,31.9l-2.74,4.45L570.59,136c-10-20.73-29.33-31.24-57.52-31.24-20.16,0-38.32,11.45-46.28,29.17l-5.47,12.17V108.41h-50v181.4h50V193.7c0-36.93,24.7-40.92,35.32-40.92,22.71,0,33.39,20.15,33.71,38.87v98.16h50V193.7c0-25.62,13-40.92,34.91-40.92,23.16,0,33.71,20.8,33.71,40.12v96.91h49.58V186.49C698.53,133.55,673.93,104.4,629.26,104.4Z"/><path class="cls-1" d="M954.93,0a47.46,47.46,0,1,0,47.46,47.45A47.49,47.49,0,0,0,954.93,0Zm0,69.86a22.41,22.41,0,1,1,22.4-22.41A22.43,22.43,0,0,1,954.94,69.86Z"/><polygon class="cls-1" points="139.85 108.41 96.22 219.59 53.01 108.41 0 108.41 70.88 273.4 40.56 348.39 93.62 348.39 192.93 108.41 139.85 108.41"/><path class="cls-1" d="M864.76,135.54l-5.2-7.53c-15.89-22.95-48.48-23.61-52.14-23.61-45.47,0-92.51,35.35-92.51,94.51s47,94.51,92.51,94.51c15.11,0,41.27-7.31,52.11-23.57l5.23-7.86v27.82h49.59V108.41H864.76Zm-57.41,16.93c1.15-.21,2.3-.41,3.47-.53l.2,0c1.56-.15,3.15-.24,4.76-.24a47.24,47.24,0,0,1,0,94.48c-1.61,0-3.2-.09-4.76-.24l-.2,0c-1.18-.12-2.32-.32-3.47-.53a53.29,53.29,0,0,1-7.36-2c-.65-.23-1.3-.46-1.94-.71l-.91-.37a47.23,47.23,0,0,1,0-86.81l.9-.35c.64-.27,1.3-.49,2-.72A52.78,52.78,0,0,1,807.35,152.47Z"/></svg>